<svg width="16" height="16" viewBox="0 0 16 16" fill="none" xmlns="http://www.w3.org/2000/svg">
<path d="M12.9231 1.23077H11.8974V0.615385C11.8974 0.275692 11.6217 0 11.2821 0C10.9424 0 10.6667 0.275692 10.6667 0.615385V1.23077H5.33333V0.615385C5.33333 0.275692 5.05764 0 4.71795 0C4.37826 0 4.10256 0.275692 4.10256 0.615385V1.23077H3.07692C1.09292 1.23077 0 2.32369 0 4.30769V12.9231C0 14.9071 1.09292 16 3.07692 16H12.9231C14.9071 16 16 14.9071 16 12.9231V4.30769C16 2.32369 14.9071 1.23077 12.9231 1.23077ZM3.07692 2.46154H4.10256V3.07692C4.10256 3.41662 4.37826 3.69231 4.71795 3.69231C5.05764 3.69231 5.33333 3.41662 5.33333 3.07692V2.46154H10.6667V3.07692C10.6667 3.41662 10.9424 3.69231 11.2821 3.69231C11.6217 3.69231 11.8974 3.41662 11.8974 3.07692V2.46154H12.9231C14.217 2.46154 14.7692 3.01374 14.7692 4.30769V4.92308H1.23077V4.30769C1.23077 3.01374 1.78297 2.46154 3.07692 2.46154ZM12.9231 14.7692H3.07692C1.78297 14.7692 1.23077 14.217 1.23077 12.9231V6.15385H14.7692V12.9231C14.7692 14.217 14.217 14.7692 12.9231 14.7692ZM5.55489 8.82051C5.55489 9.27344 5.18812 9.64103 4.73438 9.64103C4.28145 9.64103 3.90966 9.27344 3.90966 8.82051C3.90966 8.36759 4.27324 8 4.72616 8H4.73438C5.1873 8 5.55489 8.36759 5.55489 8.82051ZM8.83694 8.82051C8.83694 9.27344 8.47017 9.64103 8.01643 9.64103C7.5635 9.64103 7.19171 9.27344 7.19171 8.82051C7.19171 8.36759 7.55529 8 8.00821 8H8.01643C8.46935 8 8.83694 8.36759 8.83694 8.82051ZM12.119 8.82051C12.119 9.27344 11.7522 9.64103 11.2985 9.64103C10.8456 9.64103 10.4738 9.27344 10.4738 8.82051C10.4738 8.36759 10.8373 8 11.2903 8H11.2985C11.7514 8 12.119 8.36759 12.119 8.82051ZM5.55489 12.1026C5.55489 12.5555 5.18812 12.9231 4.73438 12.9231C4.28145 12.9231 3.90966 12.5555 3.90966 12.1026C3.90966 11.6496 4.27324 11.2821 4.72616 11.2821H4.73438C5.1873 11.2821 5.55489 11.6496 5.55489 12.1026ZM8.83694 12.1026C8.83694 12.5555 8.47017 12.9231 8.01643 12.9231C7.5635 12.9231 7.19171 12.5555 7.19171 12.1026C7.19171 11.6496 7.55529 11.2821 8.00821 11.2821H8.01643C8.46935 11.2821 8.83694 11.6496 8.83694 12.1026ZM12.119 12.1026C12.119 12.5555 11.7522 12.9231 11.2985 12.9231C10.8456 12.9231 10.4738 12.5555 10.4738 12.1026C10.4738 11.6496 10.8373 11.2821 11.2903 11.2821H11.2985C11.7514 11.2821 12.119 11.6496 12.119 12.1026Z" fill="white"/>
</svg>
