<svg width="16" height="16" viewBox="0 0 16 16" fill="none" xmlns="http://www.w3.org/2000/svg">
<path d="M7.95502 4.14752C6.93305 4.14752 5.95294 4.5535 5.2303 5.27614C4.50766 5.99878 4.10168 6.97889 4.10168 8.00086C4.10168 9.02282 4.50766 10.0029 5.2303 10.7256C5.95294 11.4482 6.93305 11.8542 7.95502 11.8542C8.97699 11.8542 9.9571 11.4482 10.6797 10.7256C11.4024 10.0029 11.8084 9.02282 11.8084 8.00086C11.8084 6.97889 11.4024 5.99878 10.6797 5.27614C9.9571 4.5535 8.97699 4.14752 7.95502 4.14752ZM7.95502 10.5034C7.29109 10.5034 6.65436 10.2396 6.18489 9.77015C5.71543 9.30068 5.45168 8.66395 5.45168 8.00002C5.45168 7.3361 5.71543 6.69936 6.18489 6.2299C6.65436 5.76043 7.29109 5.49669 7.95502 5.49669C8.61894 5.49669 9.25568 5.76043 9.72514 6.2299C10.1946 6.69936 10.4584 7.3361 10.4584 8.00002C10.4584 8.66395 10.1946 9.30068 9.72514 9.77015C9.25568 10.2396 8.61894 10.5034 7.95502 10.5034Z" fill="#EB5757"/>
<path d="M11.9608 4.90421C12.457 4.90421 12.8592 4.50201 12.8592 4.00588C12.8592 3.50974 12.457 3.10754 11.9608 3.10754C11.4647 3.10754 11.0625 3.50974 11.0625 4.00588C11.0625 4.50201 11.4647 4.90421 11.9608 4.90421Z" fill="#EB5757"/>
<path d="M15.0667 3.09255C14.8738 2.59436 14.579 2.14195 14.2011 1.76426C13.8233 1.38657 13.3708 1.09194 12.8725 0.899211C12.2895 0.680342 11.6735 0.561996 11.0509 0.549211C10.2484 0.514211 9.99419 0.504211 7.95919 0.504211C5.92419 0.504211 5.66335 0.504211 4.86752 0.549211C4.24534 0.561342 3.62982 0.679713 3.04752 0.899211C2.54913 1.09171 2.09649 1.38627 1.71863 1.76399C1.34077 2.1417 1.04604 2.59423 0.853353 3.09255C0.63444 3.67556 0.516365 4.29158 0.504186 4.91421C0.468353 5.71588 0.45752 5.97005 0.45752 8.00588C0.45752 10.0409 0.45752 10.3 0.504186 11.0975C0.516686 11.7209 0.634186 12.3359 0.853353 12.92C1.04658 13.4182 1.3416 13.8705 1.71955 14.2482C2.0975 14.6259 2.55007 14.9205 3.04835 15.1134C3.62955 15.341 4.24533 15.4679 4.86919 15.4884C5.67169 15.5234 5.92585 15.5342 7.96085 15.5342C9.99585 15.5342 10.2567 15.5342 11.0525 15.4884C11.6751 15.4757 12.291 15.3577 12.8742 15.1392C13.3723 14.946 13.8247 14.6511 14.2025 14.2734C14.5803 13.8956 14.8752 13.4432 15.0684 12.945C15.2875 12.3617 15.405 11.7467 15.4175 11.1234C15.4534 10.3217 15.4642 10.0675 15.4642 8.03171C15.4642 5.99588 15.4642 5.73755 15.4175 4.94005C15.4078 4.30861 15.2891 3.68359 15.0667 3.09255ZM14.0517 11.0359C14.0463 11.5161 13.9587 11.9919 13.7925 12.4425C13.6674 12.7666 13.4758 13.0609 13.2301 13.3064C12.9844 13.552 12.69 13.7434 12.3659 13.8684C11.9202 14.0338 11.4495 14.1214 10.9742 14.1275C10.1825 14.1642 9.95919 14.1734 7.92919 14.1734C5.89752 14.1734 5.69002 14.1734 4.88335 14.1275C4.40829 14.1217 3.93779 14.0341 3.49252 13.8684C3.16726 13.7442 2.87169 13.5531 2.62493 13.3075C2.37817 13.0619 2.18572 12.7672 2.06002 12.4425C1.89622 11.9968 1.80861 11.5266 1.80085 11.0517C1.76502 10.26 1.75669 10.0367 1.75669 8.00671C1.75669 5.97588 1.75669 5.76838 1.80085 4.96088C1.80624 4.4809 1.8939 4.00539 2.06002 3.55504C2.31419 2.89754 2.83502 2.38004 3.49252 2.12838C3.93801 1.96349 4.40837 1.87585 4.88335 1.86921C5.67585 1.83338 5.89835 1.82338 7.92919 1.82338C9.96002 1.82338 10.1684 1.82338 10.9742 1.86921C11.4495 1.87493 11.9203 1.9626 12.3659 2.12838C12.69 2.25361 12.9843 2.44521 13.23 2.6909C13.4757 2.93659 13.6673 3.23094 13.7925 3.55504C13.9563 4.00084 14.0439 4.47101 14.0517 4.94588C14.0875 5.73838 14.0967 5.96088 14.0967 7.99171C14.0967 10.0217 14.0967 10.24 14.0609 11.0367H14.0517V11.0359Z" fill="#EB5757"/>
</svg>
