<svg width="110" height="56" viewBox="0 0 110 56" fill="none" xmlns="http://www.w3.org/2000/svg">
<path d="M8.46196e-06 36.0037C0.00994036 25.1175 8.84291 16.3006 19.729 16.3104C30.6151 16.3207 39.4321 25.1535 39.4218 36.0397C39.412 46.9255 30.579 55.7424 19.6929 55.7325C8.80688 55.7227 -0.00997028 46.8894 8.46196e-06 36.0037Z" fill="#141418"/>
<path d="M94.6374 52.2653L38.4357 52.2137C36.9239 52.2123 36.1199 50.4156 37.1375 49.2974C40.3185 45.8006 42.2594 41.1551 42.2641 36.0558C42.2688 30.9442 40.3274 26.2853 37.1394 22.78C36.1214 21.6603 36.9272 19.8624 38.4408 19.8638L94.3168 19.9149L94.6673 19.9152C103.143 19.9229 110.008 26.8002 110 35.276V35.6261L109.998 36.9323C109.991 45.408 103.113 52.2727 94.6374 52.2653Z" fill="#141418"/>
<path d="M20.1448 18.0105C20.1779 17.8826 20.2106 17.7542 20.2429 17.6249C20.2429 17.6249 20.2429 17.6249 20.2429 17.6249C20.2107 17.7542 20.178 17.8826 20.1448 18.0105ZM20.4839 17.8948L20.291 17.6259H20.2909C20.5257 17.6338 20.7841 17.684 21.0634 17.7739C21.0534 17.7781 21.0435 17.7823 21.0338 17.787C21.0173 17.7866 21.0009 17.7861 20.9848 17.7861C20.7961 17.7861 20.6283 17.8217 20.4839 17.8948Z" fill="#131317"/>
<path d="M28.0657 28.5604V28.5591L28.0658 28.5604H28.0657Z" fill="#B5D0EF"/>
<path d="M25.6865 30.2754L25.6889 30.2788C25.6858 30.2744 25.6827 30.27 25.6794 30.2656L25.6865 30.2754Z" fill="#B5D0EF"/>
<path d="M19.6597 48.2892L19.461 48.4864L18.521 49.4201C18.222 49.7171 17.7418 49.7312 17.3811 49.4772C17.3332 49.443 17.2871 49.4046 17.2439 49.3611L13.4335 45.5246L13.1161 45.2051C13.0385 45.1269 12.9763 45.0397 12.9296 44.9475C12.8082 44.7076 12.7927 44.434 12.8855 44.2007C12.9253 44.1004 12.9854 44.0072 13.0658 43.9276L14.2044 42.7966C14.3135 42.6879 14.4463 42.6177 14.5891 42.5835L14.5951 42.5825C14.6623 42.5666 14.732 42.5596 14.802 42.5605H14.8023C14.8123 42.5605 14.8223 42.561 14.8324 42.5615C15.0636 42.5722 15.2984 42.6711 15.4816 42.8557L15.9665 43.3443L16.1624 43.5411L19.6097 47.0116C19.6528 47.0547 19.6912 47.1011 19.7249 47.1498C19.9765 47.5119 19.9587 47.9921 19.6597 48.2892Z" fill="white"/>
<path d="M21.4409 50.4798C21.3961 50.5393 21.3462 50.596 21.292 50.6499L20.8709 51.0687C20.2398 51.6951 19.2202 51.6918 18.5934 51.0607L17.3546 49.8136C17.2691 49.7274 17.2695 49.5883 17.3559 49.5021L17.3813 49.4773L18.9238 47.9453L19.725 47.1498L19.7501 47.1245C19.8362 47.0388 19.9756 47.0393 20.0611 47.1255L21.2998 48.3726C21.8727 48.9493 21.919 49.8506 21.4409 50.4798Z" fill="#ED3237"/>
<path d="M21.4413 50.4799H21.4412C21.5924 50.2808 21.6912 50.0545 21.7374 49.8198C21.6912 50.0545 21.5925 50.2808 21.4413 50.4799Z" fill="#111115"/>
<path d="M18.9242 47.9454H18.9241L15.2418 44.2383L15.0111 44.0059L14.9451 43.9394C15.0786 43.857 15.2204 43.7712 15.3713 43.6832C15.5566 43.574 15.7553 43.4606 15.9668 43.3444L16.1627 43.5412L19.61 47.0117C19.6531 47.0548 19.6914 47.1012 19.7252 47.1499L18.9242 47.9454Z" fill="#D4D6D3"/>
<path d="M20.0613 47.1254C20.0184 47.0823 19.9618 47.0603 19.9053 47.0603C19.9018 47.0603 19.8983 47.0608 19.8948 47.0608C19.8983 47.0608 19.9018 47.0603 19.9053 47.0603C19.9619 47.0603 20.0183 47.0823 20.0613 47.1254Z" fill="#111115"/>
<path d="M21.4411 50.4799L19.4612 48.4865L18.9241 47.9454L19.7251 47.1499C19.7251 47.1499 19.7251 47.1499 19.7251 47.1499L19.7503 47.1246C19.7905 47.0847 19.8423 47.0632 19.8947 47.0608C19.8982 47.0608 19.9017 47.0604 19.9052 47.0604C19.9618 47.0604 20.0183 47.0824 20.0613 47.1255L20.3357 47.4019L21.2999 48.3726C21.6916 48.7671 21.837 49.3129 21.7373 49.8198C21.6911 50.0545 21.5923 50.2808 21.4411 50.4799Z" fill="#D11818"/>
<path d="M35.9793 39.5426C35.9516 39.5398 35.9235 39.5374 35.8959 39.5356C35.7516 39.5234 35.6078 39.5117 35.4644 39.5018C34.6656 39.4433 33.8865 39.4086 33.1281 39.396C33.0882 39.395 33.0484 39.3946 33.0086 39.3941C32.8095 39.3908 32.6118 39.3899 32.4155 39.3899C24.546 39.3927 18.9576 41.6962 15.9666 43.3444C15.7551 43.4605 15.5564 43.5739 15.3711 43.6831C15.2202 43.7712 15.0784 43.8569 14.9449 43.9393C14.7776 44.0424 14.6239 44.1403 14.4843 44.2317C13.7928 44.6833 13.4399 44.9766 13.4399 44.9766L13.2942 44.7728L12.8856 44.2008L11.5732 42.3648L10.654 41.0792L10.6497 41.0731L10.6364 41.0544L7.84619 37.1622C7.84619 37.1622 8.57614 36.7148 9.70046 35.7446C12.1348 33.6439 16.4178 29.0912 19.1404 21.318C19.2541 20.9938 19.3646 20.6636 19.4726 20.3281C19.6288 19.8428 19.7788 19.3462 19.9215 18.8369C19.9655 18.68 20.0089 18.5226 20.0514 18.3633C20.1167 18.1197 20.1808 17.8737 20.2427 17.625C20.2438 17.6198 20.2452 17.6151 20.2462 17.6104H20.2465C20.2491 17.5987 20.252 17.587 20.2549 17.5758L20.2729 17.6011L20.2908 17.6259L20.4837 17.8948L20.6518 18.1295L28.1162 28.5416L35.5871 38.9935V38.994L35.9371 39.4831L35.9793 39.5426Z" fill="white"/>
<path d="M10.65 41.0731L10.6365 41.054L10.6435 41.0641L10.65 41.0731Z" fill="#121216"/>
<path d="M9.54492 39.5389L10.6365 41.0544L9.54755 39.537L9.54492 39.5389Z" fill="#B5D0EF"/>
<path d="M25.6963 30.2896C29.8385 36.0843 34.4048 39.9183 35.8956 38.8525C36.0745 38.7246 36.201 38.5312 36.2779 38.2805C36.3537 35.8838 34.3168 31.25 30.937 26.5215C27.6083 21.8648 23.9446 18.4701 21.6448 17.6957C21.3461 17.6714 21.0936 17.7262 20.8955 17.8681C19.4047 18.9335 21.5541 24.4949 25.6963 30.2896Z" fill="white"/>
<path d="M10.6583 46.1459C10.1777 46.0817 9.70868 45.9332 9.27547 45.7041C8.7444 45.4235 8.26748 45.0215 7.88843 44.5066C8.46645 44.1436 9.76195 43.3514 11.5733 42.3647L12.8858 44.2007C12.793 44.434 12.8085 44.7076 12.9299 44.9475C12.0142 45.3925 11.2508 45.8062 10.6586 46.1459H10.6583Z" fill="#111115"/>
<path d="M12.9296 44.9475C12.8082 44.7076 12.7927 44.4341 12.8855 44.2007L13.2941 44.7728C13.1702 44.8313 13.0485 44.8899 12.9296 44.9475Z" fill="#D4D6D3"/>
<path d="M13.2942 44.7728L12.8857 44.2008L11.5732 42.3648C12.2054 42.02 12.9007 41.6522 13.6503 41.2704C17.4953 39.3117 22.7683 36.9932 28.3103 35.6655C28.3853 35.6472 28.4606 35.6294 28.5356 35.6121C28.8834 35.5301 29.2319 35.4528 29.5813 35.3802C30.7323 36.8058 31.8449 38.1105 32.8915 39.2648C32.9309 39.3079 32.9698 39.3515 33.0087 39.3941C32.8096 39.3909 32.6119 39.3899 32.4156 39.3899C24.5461 39.3927 18.9577 41.6963 15.9667 43.3444C15.7551 43.4606 15.5564 43.574 15.3712 43.6831C15.2203 43.7712 15.0784 43.8569 14.9449 43.9394C14.7776 44.0425 14.624 44.1404 14.4844 44.2317C14.0653 44.4144 13.6684 44.5953 13.2942 44.7728Z" fill="#D4D6D3"/>
<path d="M15.4211 43.8358C15.4403 43.9857 15.3783 44.1403 15.2471 44.234L15.2417 44.2382L13.5951 45.415C13.542 45.4534 13.4881 45.49 13.4337 45.5247C12.5837 46.0747 11.5986 46.2719 10.6586 46.1459H10.6583C10.1777 46.0817 9.70863 45.9332 9.27542 45.7041C8.74435 45.4235 8.26743 45.0215 7.88838 44.5066C7.877 44.4912 7.86599 44.4757 7.85493 44.4603L6.50269 42.5685C6.43401 42.472 6.36992 42.3736 6.31019 42.2738C5.97808 41.7145 5.7928 41.1026 5.74688 40.4875C5.64293 39.1012 6.24409 37.6958 7.45747 36.8282L9.10911 35.6476C9.29946 35.5117 9.56392 35.5553 9.70057 35.7445L9.70207 35.7464L13.6503 41.2703L14.5894 42.5835L14.668 42.6941L15.3454 43.6418C15.3549 43.6549 15.3635 43.6685 15.3712 43.683C15.3985 43.7308 15.4149 43.7833 15.4211 43.8358Z" fill="#ED3237"/>
<path d="M27.4527 32.6021C26.8652 31.8754 26.2765 31.1015 25.696 30.2896C25.5509 30.0863 25.4082 29.8839 25.268 29.6815C25.4082 29.8839 25.551 30.0868 25.6961 30.2896C26.2766 31.102 26.8653 31.875 27.4528 32.6021H27.4527ZM25.2644 29.6764C25.2619 29.6726 25.2595 29.6693 25.257 29.6656C25.2594 29.6693 25.262 29.6726 25.2644 29.6764ZM25.2484 29.6529C25.2474 29.6515 25.2464 29.6501 25.2454 29.6487C25.2463 29.6501 25.2475 29.6515 25.2484 29.6529Z" fill="#D4D6D3"/>
<path d="M27.4529 32.6021C26.8654 31.875 26.2767 31.102 25.6962 30.2896C25.5511 30.0868 25.4083 29.8839 25.2681 29.6815C25.267 29.6796 25.2657 29.6778 25.2646 29.6764C25.2621 29.6726 25.2596 29.6693 25.2571 29.6656C25.2543 29.6614 25.2514 29.6572 25.2485 29.6529C25.2476 29.6515 25.2465 29.6501 25.2455 29.6487C24.8219 29.0364 24.4214 28.4283 24.0459 27.8296C24.5456 27.4942 25.1138 27.3325 25.6768 27.3325C26.0468 27.3325 26.4146 27.4023 26.7595 27.5382C27.2669 27.7392 27.7247 28.083 28.0657 28.56C28.7069 29.4571 28.7706 30.5927 28.3299 31.5236C28.1345 31.9363 27.8402 32.3083 27.4529 32.6021Z" fill="#D4D6D3"/>
<path d="M35.6862 39.7313C34.6944 40.4402 32.635 39.4264 30.2357 37.2718C29.2875 36.4201 28.2863 35.3908 27.2769 34.2191C26.972 33.865 26.6664 33.4981 26.3613 33.1196C25.8117 32.4375 25.2641 31.7165 24.725 30.9622C24.1811 30.2014 23.6719 29.4429 23.2009 28.6957C22.936 28.2755 22.6831 27.859 22.4426 27.4477C21.669 26.1242 21.0257 24.8541 20.5321 23.6904C19.2753 20.73 18.9854 18.4602 19.9756 17.7523C20.3748 17.467 20.9471 17.4609 21.6448 17.6957C21.3462 17.6713 21.0936 17.7261 20.8955 17.8681C20.1419 18.4068 20.3186 20.0948 21.2131 22.381C21.6939 23.6103 22.3825 25.0129 23.2455 26.5027C23.4977 26.9384 23.7648 27.3811 24.046 27.8295C24.5522 28.6367 25.1037 29.4607 25.6963 30.2895C26.2768 31.1014 26.8655 31.8753 27.453 32.6019C27.7818 33.0086 28.1102 33.4012 28.4361 33.7769C29.5741 35.0891 30.6864 36.2065 31.7017 37.0689C33.5874 38.6707 35.1386 39.394 35.8956 38.8525C36.0746 38.7246 36.2011 38.5311 36.2784 38.2804C36.2564 38.9602 36.0652 39.4601 35.6862 39.7313Z" fill="#ED3237"/>
<path d="M50.5734 11.434L48.0471 10.0482L56.1268 1.02636L44.317 8.00262L46.8434 9.3879L38.7632 18.4103L50.5734 11.434Z" fill="white"/>
<path d="M36.1583 7.15221L34.4071 7.51479L34.5912 -6.67572e-06L31.8215 8.05042L33.5727 7.68784L33.3882 15.2026L36.1583 7.15221Z" fill="white"/>
<path d="M49.869 21.6019L49.415 23.3316L56.9291 23.5419L48.7446 25.8857L49.1986 24.1561L41.6841 23.9462L49.869 21.6019Z" fill="white"/>
<path d="M51.2234 35.651V27.192H54.8912C55.5355 27.192 56.0766 27.2787 56.5144 27.4522C56.955 27.6257 57.2868 27.8708 57.5099 28.1874C57.7357 28.5041 57.8485 28.8772 57.8485 29.3068C57.8485 29.6179 57.7797 29.9015 57.642 30.1576C57.5071 30.4137 57.3171 30.6285 57.072 30.8019C56.827 30.9727 56.5406 31.0911 56.2129 31.1572V31.2398C56.5764 31.2535 56.9068 31.3458 57.2042 31.5165C57.5016 31.6845 57.7384 31.9171 57.9146 32.2145C58.0909 32.5092 58.179 32.8561 58.179 33.2554C58.179 33.718 58.0578 34.1296 57.8155 34.4904C57.5759 34.8511 57.2345 35.1347 56.7912 35.3412C56.3478 35.5477 55.8192 35.651 55.2051 35.651H51.2234ZM53.5199 33.8171H54.5938C54.9793 33.8171 55.2684 33.7455 55.4612 33.6023C55.6539 33.4564 55.7503 33.2416 55.7503 32.958C55.7503 32.7597 55.7049 32.5918 55.614 32.4541C55.5231 32.3164 55.3937 32.2118 55.2258 32.1402C55.0605 32.0686 54.8609 32.0328 54.6269 32.0328H53.5199V33.8171ZM53.5199 30.6119H54.4616C54.6627 30.6119 54.8403 30.5803 54.9945 30.5169C55.1487 30.4536 55.2684 30.3627 55.3538 30.2443C55.4419 30.1232 55.486 29.9759 55.486 29.8024C55.486 29.5408 55.3924 29.3412 55.2051 29.2035C55.0179 29.0631 54.7811 28.9928 54.4947 28.9928H53.5199V30.6119ZM58.9927 35.651V27.192H61.2891V33.8006H64.7091V35.651H58.9927ZM73.5027 31.4215C73.5027 32.3632 73.3195 33.1576 72.9533 33.8047C72.5871 34.4491 72.0928 34.9378 71.4705 35.271C70.8482 35.6014 70.1543 35.7667 69.3888 35.7667C68.6178 35.7667 67.9211 35.6001 67.2988 35.2669C66.6793 34.9309 66.1864 34.4408 65.8202 33.7965C65.4567 33.1494 65.275 32.3577 65.275 31.4215C65.275 30.4798 65.4567 29.6867 65.8202 29.0424C66.1864 28.3953 66.6793 27.9066 67.2988 27.5761C67.9211 27.2429 68.6178 27.0763 69.3888 27.0763C70.1543 27.0763 70.8482 27.2429 71.4705 27.5761C72.0928 27.9066 72.5871 28.3953 72.9533 29.0424C73.3195 29.6867 73.5027 30.4798 73.5027 31.4215ZM71.1401 31.4215C71.1401 30.9148 71.0726 30.488 70.9377 30.1411C70.8055 29.7914 70.6086 29.527 70.3471 29.3481C70.0882 29.1663 69.7688 29.0754 69.3888 29.0754C69.0088 29.0754 68.688 29.1663 68.4264 29.3481C68.1676 29.527 67.9707 29.7914 67.8358 30.1411C67.7036 30.488 67.6375 30.9148 67.6375 31.4215C67.6375 31.9282 67.7036 32.3563 67.8358 32.706C67.9707 33.053 68.1676 33.3173 68.4264 33.4991C68.688 33.6781 69.0088 33.7676 69.3888 33.7676C69.7688 33.7676 70.0882 33.6781 70.3471 33.4991C70.6086 33.3173 70.8055 33.053 70.9377 32.706C71.0726 32.3563 71.1401 31.9282 71.1401 31.4215ZM80.0586 29.9841C80.0228 29.8382 79.9663 29.7101 79.8892 29.6C79.8121 29.4871 79.7158 29.3921 79.6001 29.315C79.4872 29.2352 79.355 29.176 79.2036 29.1374C79.0549 29.0961 78.8911 29.0754 78.7121 29.0754C78.3266 29.0754 77.9975 29.1677 77.7249 29.3522C77.4551 29.5367 77.2486 29.8024 77.1054 30.1493C76.9649 30.4963 76.8947 30.9148 76.8947 31.405C76.8947 31.9006 76.9622 32.3247 77.0971 32.6771C77.232 33.0296 77.433 33.2994 77.7001 33.4867C77.9672 33.6739 78.2991 33.7676 78.6956 33.7676C79.0453 33.7676 79.3358 33.7166 79.5671 33.6147C79.8011 33.5128 79.976 33.3683 80.0916 33.181C80.2073 32.9938 80.2651 32.7735 80.2651 32.5202L80.6616 32.5615H78.7286V30.9259H82.479V32.0989C82.479 32.8699 82.3151 33.5294 81.9875 34.0773C81.6625 34.6225 81.2137 35.0411 80.641 35.333C80.071 35.6221 79.417 35.7667 78.679 35.7667C77.8557 35.7667 77.1329 35.5918 76.5106 35.2421C75.8883 34.8924 75.4023 34.394 75.0526 33.7469C74.7056 33.0998 74.5322 32.3302 74.5322 31.438C74.5322 30.7386 74.6382 30.1191 74.8502 29.5794C75.065 29.0397 75.3624 28.5839 75.7424 28.2122C76.1223 27.8377 76.5615 27.5555 77.0599 27.3655C77.5583 27.1727 78.0925 27.0763 78.6625 27.0763C79.1637 27.0763 79.629 27.1479 80.0586 27.2911C80.4909 27.4316 80.8723 27.6326 81.2027 27.8942C81.5359 28.153 81.8044 28.46 82.0081 28.8152C82.2119 29.1704 82.3358 29.5601 82.3799 29.9841H80.0586Z" fill="white"/>
<path d="M53.4208 46.209H50.9426L53.7347 37.75H56.8738L59.6659 46.209H57.1877L55.3373 40.0795H55.2712L53.4208 46.209ZM52.9582 42.8716H57.6172V44.5899H52.9582V42.8716ZM60.4806 46.209V37.75H62.7771V44.3586H66.1971V46.209H60.4806ZM67.1254 46.209V37.75H73.2218V39.6004H69.4218V41.0543H72.9079V42.9047H69.4218V44.3586H73.2053V46.209H67.1254ZM74.3607 46.209V37.75H78.012C78.6398 37.75 79.1891 37.8643 79.66 38.0928C80.1309 38.3214 80.4971 38.6504 80.7587 39.08C81.0203 39.5095 81.1511 40.0244 81.1511 40.6247C81.1511 41.2305 81.0161 41.7413 80.7463 42.1571C80.4792 42.5729 80.1033 42.8868 79.6187 43.0988C79.1368 43.3108 78.5737 43.4169 77.9294 43.4169H75.7485V41.6325H77.4668C77.7366 41.6325 77.9666 41.5995 78.1566 41.5334C78.3493 41.4646 78.4966 41.3558 78.5985 41.2071C78.7031 41.0584 78.7555 40.8643 78.7555 40.6247C78.7555 40.3824 78.7031 40.1855 78.5985 40.0341C78.4966 39.8799 78.3493 39.767 78.1566 39.6954C77.9666 39.621 77.7366 39.5839 77.4668 39.5839H76.6572V46.209H74.3607ZM79.3172 42.3264L81.4319 46.209H78.9372L76.872 42.3264H79.3172ZM81.8987 39.6004V37.75H89.2507V39.6004H86.7064V46.209H84.443V39.6004H81.8987ZM91.2447 46.209H88.7664L91.5586 37.75H94.6977L97.4898 46.209H95.0116L93.1612 40.0795H93.0951L91.2447 46.209ZM90.7821 42.8716H95.4411V44.5899H90.7821V42.8716Z" fill="#ED3237"/>
</svg>
