<svg width="16" height="16" viewBox="0 0 16 16" fill="none" xmlns="http://www.w3.org/2000/svg">
<path d="M16 8C16 3.58847 12.4115 0 8 0C3.58847 0 0 3.58847 0 8C0 10.5823 1.2346 12.8759 3.13972 14.3398C3.14269 14.3427 3.14719 14.3442 3.15016 14.3472C4.49788 15.3794 6.17598 16 8.00073 16C9.82547 16 11.5037 15.3794 12.8514 14.3472C12.8544 14.3442 12.8588 14.3427 12.8617 14.3398C14.7654 12.8759 16 10.5823 16 8ZM1.11628 8C1.11628 4.20391 4.20391 1.11628 8 1.11628C11.7961 1.11628 14.8837 4.20391 14.8837 8C14.8837 9.87758 14.1261 11.5811 12.9027 12.8239C12.5686 11.4092 11.4991 10.0986 9.27253 10.0986H6.72747C4.50087 10.0986 3.43069 11.4092 3.09729 12.8239C1.87385 11.5811 1.11628 9.87758 1.11628 8ZM4.09975 13.6662C4.14291 12.9027 4.49194 11.2148 6.72747 11.2148H9.27253C11.5081 11.2148 11.8571 12.9027 11.9003 13.6662C10.7907 14.4328 9.44744 14.8837 8 14.8837C6.55256 14.8837 5.20933 14.432 4.09975 13.6662ZM8.006 9.30233C9.54423 9.30233 10.7967 8.0506 10.7967 6.51163C10.7967 4.97265 9.54423 3.72093 8.006 3.72093C6.46776 3.72093 5.2153 4.97265 5.2153 6.51163C5.2153 8.0506 6.46702 9.30233 8.006 9.30233ZM8.006 4.83721C8.92879 4.83721 9.68041 5.58809 9.68041 6.51163C9.68041 7.43516 8.92879 8.18605 8.006 8.18605C7.0832 8.18605 6.33158 7.43516 6.33158 6.51163C6.33158 5.58809 7.0832 4.83721 8.006 4.83721Z" fill="#4B4856"/>
</svg>
