<svg width="16" height="15" viewBox="0 0 16 15" fill="none" xmlns="http://www.w3.org/2000/svg">
<path fill-rule="evenodd" clip-rule="evenodd" d="M8.08607 0C4.01853 0 0.714596 3.30393 0.714596 7.37147C0.714596 8.61139 1.03215 9.82863 1.62186 10.9173L0.45752 15L4.5402 13.8357C5.62891 14.433 6.84615 14.7429 8.08607 14.7429C12.1536 14.7429 15.4575 11.439 15.4575 7.37147C15.4575 3.30393 12.1536 0 8.08607 0ZM8.08607 13.6089C6.96712 13.6089 5.87083 13.3065 4.90309 12.7394L4.69142 12.6109L2.10575 13.3518L2.84666 10.7661L2.72567 10.5544C2.15107 9.59426 1.84867 8.49043 1.84867 7.37147C1.84867 3.93145 4.64605 1.13407 8.08607 1.13407C11.5261 1.13407 14.3235 3.93145 14.3235 7.37147C14.3235 10.8115 11.5261 13.6089 8.08607 13.6089ZM11.8436 9.08014C11.889 9.15574 11.889 9.53377 11.7378 9.97228C11.579 10.4184 10.823 10.8266 10.4827 10.8644C10.1425 10.9022 9.82496 11.0232 8.25238 10.4032C6.36226 9.64717 5.16017 7.69658 5.06944 7.57561C4.97872 7.45464 4.31339 6.56251 4.31339 5.64013C4.31339 4.71775 4.78969 4.27167 4.96359 4.0751C5.13748 3.88609 5.34164 3.84073 5.4626 3.84073C5.59113 3.84073 5.71208 3.84072 5.82549 3.84828C5.95402 3.84828 6.10522 3.84828 6.24131 4.16582C6.40764 4.53629 6.76298 5.45867 6.80835 5.54184C6.85371 5.63256 6.88397 5.74596 6.82348 5.86693C6.75544 5.9879 6.72519 6.07107 6.63447 6.17691C6.54374 6.28276 6.4379 6.41886 6.35473 6.50202C6.25645 6.59275 6.16569 6.69103 6.27153 6.88005C6.38494 7.0615 6.7554 7.68145 7.30732 8.17288C8.018 8.81552 8.61531 9.01209 8.80432 9.10282C8.98578 9.19354 9.09916 9.17843 9.20501 9.05746C9.31841 8.93649 9.67378 8.5131 9.79475 8.32409C9.91571 8.14264 10.0367 8.17288 10.2106 8.23337C10.3845 8.29385 11.2917 8.75504 11.4807 8.84577C11.6622 8.94405 11.7907 8.98942 11.8361 9.06503L11.8436 9.08014Z" fill="#EB5757"/>
</svg>
